<?xml version="1.0" encoding="UTF-8" standalone="no"?>
<!DOCTYPE svg PUBLIC "-//W3C//DTD SVG 1.1//EN"
 "http://www.w3.org/Graphics/SVG/1.1/DTD/svg11.dtd">
<!-- Generated by graphviz version 2.40.1 (20161225.0304)
 -->
<!-- Title: Anonymous Pages: 1 -->
<svg width="461pt" height="644pt"
 viewBox="0.00 0.00 461.00 644.00" xmlns="http://www.w3.org/2000/svg" xmlns:xlink="http://www.w3.org/1999/xlink">
<g id="graph0" class="graph" transform="scale(1 1) rotate(0) translate(4 640)">
<title>Anonymous</title>
<polygon fill="#ffffff" stroke="transparent" points="-4,4 -4,-640 457,-640 457,4 -4,4"/>
<!-- u_11 -->
<g id="node1" class="node">
<title>u_11</title>
<polygon fill="none" stroke="#0000ff" points="10.5,-610.5 10.5,-629.5 51.5,-629.5 51.5,-610.5 10.5,-610.5"/>
<text text-anchor="start" x="13.5" y="-616.9" font-family="Courier,monospace" font-size="12.00" fill="#000000">LFSaw</text>
<polygon fill="none" stroke="#0000ff" points="53.5,-610.5 53.5,-629.5 67.5,-629.5 67.5,-610.5 53.5,-610.5"/>
<text text-anchor="start" x="56.5" y="-616.9" font-family="Courier,monospace" font-size="12.00" fill="#000000">8</text>
<polygon fill="none" stroke="#0000ff" points="69.5,-610.5 69.5,-629.5 83.5,-629.5 83.5,-610.5 69.5,-610.5"/>
<text text-anchor="start" x="72.5" y="-616.9" font-family="Courier,monospace" font-size="12.00" fill="#000000">0</text>
<polygon fill="none" stroke="#0000ff" points="69.5,-602.5 69.5,-608.5 83.5,-608.5 83.5,-602.5 69.5,-602.5"/>
</g>
<!-- u_12 -->
<g id="node2" class="node">
<title>u_12</title>
<polygon fill="none" stroke="#0000ff" points="36.5,-535.5 36.5,-554.5 84.5,-554.5 84.5,-535.5 36.5,-535.5"/>
<text text-anchor="start" x="39.5" y="-541.9" font-family="Courier,monospace" font-size="12.00" fill="#000000">MulAdd</text>
<polygon fill="none" stroke="#0000ff" points="86.5,-535.5 86.5,-554.5 92.5,-554.5 92.5,-535.5 86.5,-535.5"/>
<polygon fill="none" stroke="#0000ff" points="94.5,-535.5 94.5,-554.5 107.5,-554.5 107.5,-535.5 94.5,-535.5"/>
<text text-anchor="start" x="97.5" y="-541.9" font-family="Courier,monospace" font-size="12.00" fill="#000000">3</text>
<polygon fill="none" stroke="#0000ff" points="109.5,-535.5 109.5,-554.5 131.5,-554.5 131.5,-535.5 109.5,-535.5"/>
<text text-anchor="start" x="112.5" y="-541.9" font-family="Courier,monospace" font-size="12.00" fill="#000000">80</text>
<polygon fill="none" stroke="#0000ff" points="109.5,-527.5 109.5,-533.5 131.5,-533.5 131.5,-527.5 109.5,-527.5"/>
</g>
<!-- u_11&#45;&gt;u_12 -->
<g id="edge1" class="edge">
<title>u_11:o_0&#45;&gt;u_12:i_0</title>
<path fill="none" stroke="#0000ff" d="M76.5,-602.5C76.5,-602.5 86.1008,-567.0508 88.8011,-557.0807"/>
<polygon fill="#0000ff" stroke="#0000ff" points="88.5348,-554.2386 90.4652,-554.7614 89.9423,-556.6919 88.0119,-556.169 88.5348,-554.2386"/>
<polyline fill="none" stroke="#0000ff" points="88.9771,-556.4305 88.8464,-556.9131 "/>
</g>
<!-- u_17 -->
<g id="node7" class="node">
<title>u_17</title>
<polygon fill="none" stroke="#0000ff" points="132.5,-460.5 132.5,-479.5 145.5,-479.5 145.5,-460.5 132.5,-460.5"/>
<text text-anchor="start" x="135.5" y="-466.9" font-family="Courier,monospace" font-size="12.00" fill="#000000">+</text>
<polygon fill="none" stroke="#0000ff" points="147.5,-460.5 147.5,-479.5 153.5,-479.5 153.5,-460.5 147.5,-460.5"/>
<polygon fill="none" stroke="#0000ff" points="155.5,-460.5 155.5,-479.5 161.5,-479.5 161.5,-460.5 155.5,-460.5"/>
<polygon fill="none" stroke="#0000ff" points="155.5,-452.5 155.5,-458.5 161.5,-458.5 161.5,-452.5 155.5,-452.5"/>
</g>
<!-- u_12&#45;&gt;u_17 -->
<g id="edge5" class="edge">
<title>u_12:o_0&#45;&gt;u_17:i_1</title>
<path fill="none" stroke="#0000ff" d="M131.5,-530.5C131.5,-530.5 151.8044,-492.1473 157.1977,-481.9598"/>
<polygon fill="#0000ff" stroke="#0000ff" points="157.6162,-479.0321 159.3838,-479.9679 158.448,-481.7355 156.6804,-480.7997 157.6162,-479.0321"/>
<polyline fill="none" stroke="#0000ff" points="157.5642,-481.2676 157.3302,-481.7095 "/>
</g>
<!-- u_13 -->
<g id="node3" class="node">
<title>u_13</title>
<polygon fill="none" stroke="#0000ff" points="246.5,-610.5 246.5,-629.5 287.5,-629.5 287.5,-610.5 246.5,-610.5"/>
<text text-anchor="start" x="249.5" y="-616.9" font-family="Courier,monospace" font-size="12.00" fill="#000000">LFSaw</text>
<polygon fill="none" stroke="#0000ff" points="289.5,-610.5 289.5,-629.5 323.5,-629.5 323.5,-610.5 289.5,-610.5"/>
<text text-anchor="start" x="292.5" y="-616.9" font-family="Courier,monospace" font-size="12.00" fill="#000000">7.23</text>
<polygon fill="none" stroke="#0000ff" points="325.5,-610.5 325.5,-629.5 339.5,-629.5 339.5,-610.5 325.5,-610.5"/>
<text text-anchor="start" x="328.5" y="-616.9" font-family="Courier,monospace" font-size="12.00" fill="#000000">0</text>
<polygon fill="none" stroke="#0000ff" points="325.5,-602.5 325.5,-608.5 339.5,-608.5 339.5,-602.5 325.5,-602.5"/>
</g>
<!-- u_14 -->
<g id="node4" class="node">
<title>u_14</title>
<polygon fill="none" stroke="#0000ff" points="271.5,-535.5 271.5,-554.5 319.5,-554.5 319.5,-535.5 271.5,-535.5"/>
<text text-anchor="start" x="274.5" y="-541.9" font-family="Courier,monospace" font-size="12.00" fill="#000000">MulAdd</text>
<polygon fill="none" stroke="#0000ff" points="321.5,-535.5 321.5,-554.5 327.5,-554.5 327.5,-535.5 321.5,-535.5"/>
<polygon fill="none" stroke="#0000ff" points="329.5,-535.5 329.5,-554.5 342.5,-554.5 342.5,-535.5 329.5,-535.5"/>
<text text-anchor="start" x="332.5" y="-541.9" font-family="Courier,monospace" font-size="12.00" fill="#000000">3</text>
<polygon fill="none" stroke="#0000ff" points="344.5,-535.5 344.5,-554.5 366.5,-554.5 366.5,-535.5 344.5,-535.5"/>
<text text-anchor="start" x="347.5" y="-541.9" font-family="Courier,monospace" font-size="12.00" fill="#000000">80</text>
<polygon fill="none" stroke="#0000ff" points="344.5,-527.5 344.5,-533.5 366.5,-533.5 366.5,-527.5 344.5,-527.5"/>
</g>
<!-- u_13&#45;&gt;u_14 -->
<g id="edge2" class="edge">
<title>u_13:o_0&#45;&gt;u_14:i_0</title>
<path fill="none" stroke="#0000ff" d="M332.5,-602.5C332.5,-602.5 326.5918,-567.0508 324.9301,-557.0807"/>
<polygon fill="#0000ff" stroke="#0000ff" points="323.5136,-554.6644 325.4864,-554.3356 325.8153,-556.3084 323.8425,-556.6372 323.5136,-554.6644"/>
<polyline fill="none" stroke="#0000ff" points="324.8289,-556.4728 324.9111,-556.966 "/>
</g>
<!-- u_23 -->
<g id="node13" class="node">
<title>u_23</title>
<polygon fill="none" stroke="#0000ff" points="296.5,-460.5 296.5,-479.5 309.5,-479.5 309.5,-460.5 296.5,-460.5"/>
<text text-anchor="start" x="299.5" y="-466.9" font-family="Courier,monospace" font-size="12.00" fill="#000000">+</text>
<polygon fill="none" stroke="#0000ff" points="311.5,-460.5 311.5,-479.5 317.5,-479.5 317.5,-460.5 311.5,-460.5"/>
<polygon fill="none" stroke="#0000ff" points="319.5,-460.5 319.5,-479.5 325.5,-479.5 325.5,-460.5 319.5,-460.5"/>
<polygon fill="none" stroke="#0000ff" points="319.5,-452.5 319.5,-458.5 325.5,-458.5 325.5,-452.5 319.5,-452.5"/>
</g>
<!-- u_14&#45;&gt;u_23 -->
<g id="edge12" class="edge">
<title>u_14:o_0&#45;&gt;u_23:i_1</title>
<path fill="none" stroke="#0000ff" d="M355.5,-527.5C355.5,-527.5 330.2344,-490.75 323.918,-481.5625"/>
<polygon fill="#0000ff" stroke="#0000ff" points="321.676,-480.0665 323.324,-478.9335 324.4571,-480.5816 322.809,-481.7146 321.676,-480.0665"/>
<polyline fill="none" stroke="#0000ff" points="323.6331,-481.1481 323.9164,-481.5601 "/>
</g>
<!-- u_15 -->
<g id="node5" class="node">
<title>u_15</title>
<polygon fill="none" stroke="#0000ff" points="121.5,-610.5 121.5,-629.5 162.5,-629.5 162.5,-610.5 121.5,-610.5"/>
<text text-anchor="start" x="124.5" y="-616.9" font-family="Courier,monospace" font-size="12.00" fill="#000000">LFSaw</text>
<polygon fill="none" stroke="#0000ff" points="164.5,-610.5 164.5,-629.5 192.5,-629.5 192.5,-610.5 164.5,-610.5"/>
<text text-anchor="start" x="167.5" y="-616.9" font-family="Courier,monospace" font-size="12.00" fill="#000000">0.4</text>
<polygon fill="none" stroke="#0000ff" points="194.5,-610.5 194.5,-629.5 208.5,-629.5 208.5,-610.5 194.5,-610.5"/>
<text text-anchor="start" x="197.5" y="-616.9" font-family="Courier,monospace" font-size="12.00" fill="#000000">0</text>
<polygon fill="none" stroke="#0000ff" points="194.5,-602.5 194.5,-608.5 208.5,-608.5 208.5,-602.5 194.5,-602.5"/>
</g>
<!-- u_16 -->
<g id="node6" class="node">
<title>u_16</title>
<polygon fill="none" stroke="#0000ff" points="183.5,-535.5 183.5,-554.5 196.5,-554.5 196.5,-535.5 183.5,-535.5"/>
<text text-anchor="start" x="186.5" y="-541.9" font-family="Courier,monospace" font-size="12.00" fill="#000000">*</text>
<polygon fill="none" stroke="#0000ff" points="198.5,-535.5 198.5,-554.5 204.5,-554.5 204.5,-535.5 198.5,-535.5"/>
<polygon fill="none" stroke="#0000ff" points="206.5,-535.5 206.5,-554.5 226.5,-554.5 226.5,-535.5 206.5,-535.5"/>
<text text-anchor="start" x="209.5" y="-541.9" font-family="Courier,monospace" font-size="12.00" fill="#000000">24</text>
<polygon fill="none" stroke="#0000ff" points="206.5,-527.5 206.5,-533.5 226.5,-533.5 226.5,-527.5 206.5,-527.5"/>
</g>
<!-- u_15&#45;&gt;u_16 -->
<g id="edge3" class="edge">
<title>u_15:o_0&#45;&gt;u_16:i_0</title>
<path fill="none" stroke="#0000ff" d="M201.5,-602.5C201.5,-602.5 201.5,-567.0508 201.5,-557.0807"/>
<polygon fill="#0000ff" stroke="#0000ff" points="200.5,-554.5 202.5,-554.5 202.5001,-556.5 200.5001,-556.5 200.5,-554.5"/>
<polyline fill="none" stroke="#0000ff" points="201.5001,-556.5 201.5001,-557 "/>
</g>
<!-- u_16&#45;&gt;u_17 -->
<g id="edge4" class="edge">
<title>u_16:o_0&#45;&gt;u_17:i_0</title>
<path fill="none" stroke="#0000ff" d="M216.5,-527.5C216.5,-527.5 164.1479,-489.4258 152.6959,-481.097"/>
<polygon fill="#0000ff" stroke="#0000ff" points="149.9118,-480.3087 151.0882,-478.6913 152.7057,-479.8676 151.5293,-481.4851 149.9118,-480.3087"/>
<polyline fill="none" stroke="#0000ff" points="152.1175,-480.6764 152.5219,-480.9705 "/>
</g>
<!-- u_16&#45;&gt;u_23 -->
<g id="edge11" class="edge">
<title>u_16:o_0&#45;&gt;u_23:i_0</title>
<path fill="none" stroke="#0000ff" d="M226.5,-530.5C226.5,-530.5 298.7734,-488.6143 312.3247,-480.7607"/>
<polygon fill="#0000ff" stroke="#0000ff" points="313.9986,-478.6348 315.0014,-480.3652 313.271,-481.3681 312.2681,-479.6377 313.9986,-478.6348"/>
<polyline fill="none" stroke="#0000ff" points="312.7696,-480.5029 312.337,-480.7536 "/>
</g>
<!-- u_18 -->
<g id="node8" class="node">
<title>u_18</title>
<polygon fill="none" stroke="#0000ff" points="97.5,-385.5 97.5,-404.5 153.5,-404.5 153.5,-385.5 97.5,-385.5"/>
<text text-anchor="start" x="100.5" y="-391.9" font-family="Courier,monospace" font-size="12.00" fill="#000000">MIDICPS</text>
<polygon fill="none" stroke="#0000ff" points="155.5,-385.5 155.5,-404.5 161.5,-404.5 161.5,-385.5 155.5,-385.5"/>
<polygon fill="none" stroke="#0000ff" points="155.5,-377.5 155.5,-383.5 161.5,-383.5 161.5,-377.5 155.5,-377.5"/>
</g>
<!-- u_17&#45;&gt;u_18 -->
<g id="edge6" class="edge">
<title>u_17:o_0&#45;&gt;u_18:i_0</title>
<path fill="none" stroke="#0000ff" d="M158.5,-452.5C158.5,-452.5 158.5,-417.0508 158.5,-407.0807"/>
<polygon fill="#0000ff" stroke="#0000ff" points="157.5,-404.5 159.5,-404.5 159.5001,-406.5 157.5001,-406.5 157.5,-404.5"/>
<polyline fill="none" stroke="#0000ff" points="158.5001,-406.5 158.5001,-407 "/>
</g>
<!-- u_19 -->
<g id="node9" class="node">
<title>u_19</title>
<polygon fill="none" stroke="#000000" points="104.5,-310.5 104.5,-329.5 153.5,-329.5 153.5,-310.5 104.5,-310.5"/>
<text text-anchor="start" x="107.5" y="-316.9" font-family="Courier,monospace" font-size="12.00" fill="#000000">SinOsc</text>
<polygon fill="none" stroke="#000000" points="155.5,-310.5 155.5,-329.5 161.5,-329.5 161.5,-310.5 155.5,-310.5"/>
<polygon fill="none" stroke="#000000" points="163.5,-310.5 163.5,-329.5 177.5,-329.5 177.5,-310.5 163.5,-310.5"/>
<text text-anchor="start" x="166.5" y="-316.9" font-family="Courier,monospace" font-size="12.00" fill="#000000">0</text>
<polygon fill="none" stroke="#000000" points="163.5,-302.5 163.5,-308.5 177.5,-308.5 177.5,-302.5 163.5,-302.5"/>
</g>
<!-- u_18&#45;&gt;u_19 -->
<g id="edge7" class="edge">
<title>u_18:o_0&#45;&gt;u_19:i_0</title>
<path fill="none" stroke="#0000ff" d="M158.5,-377.5C158.5,-377.5 158.5,-342.0508 158.5,-332.0807"/>
<polygon fill="#0000ff" stroke="#0000ff" points="157.5,-329.5 159.5,-329.5 159.5001,-331.5 157.5001,-331.5 157.5,-329.5"/>
<polyline fill="none" stroke="#0000ff" points="158.5001,-331.5 158.5001,-332 "/>
</g>
<!-- u_20 -->
<g id="node10" class="node">
<title>u_20</title>
<polygon fill="none" stroke="#000000" points="152.5,-235.5 152.5,-254.5 165.5,-254.5 165.5,-235.5 152.5,-235.5"/>
<text text-anchor="start" x="155.5" y="-241.9" font-family="Courier,monospace" font-size="12.00" fill="#000000">*</text>
<polygon fill="none" stroke="#000000" points="167.5,-235.5 167.5,-254.5 173.5,-254.5 173.5,-235.5 167.5,-235.5"/>
<polygon fill="none" stroke="#000000" points="175.5,-235.5 175.5,-254.5 210.5,-254.5 210.5,-235.5 175.5,-235.5"/>
<text text-anchor="start" x="178.5" y="-241.9" font-family="Courier,monospace" font-size="12.00" fill="#000000">0.04</text>
<polygon fill="none" stroke="#000000" points="175.5,-227.5 175.5,-233.5 210.5,-233.5 210.5,-227.5 175.5,-227.5"/>
</g>
<!-- u_19&#45;&gt;u_20 -->
<g id="edge8" class="edge">
<title>u_19:o_0&#45;&gt;u_20:i_0</title>
<path fill="none" stroke="#000000" d="M170.5,-302.5C170.5,-302.5 170.5,-267.0508 170.5,-257.0807"/>
<polygon fill="#000000" stroke="#000000" points="169.5,-254.5 171.5,-254.5 171.5001,-256.5 169.5001,-256.5 169.5,-254.5"/>
<polyline fill="none" stroke="#000000" points="170.5001,-256.5 170.5001,-257 "/>
</g>
<!-- u_21 -->
<g id="node11" class="node">
<title>u_21</title>
<polygon fill="none" stroke="#000000" points="145.5,-160.5 145.5,-179.5 188.5,-179.5 188.5,-160.5 145.5,-160.5"/>
<text text-anchor="start" x="148.5" y="-166.9" font-family="Courier,monospace" font-size="12.00" fill="#000000">CombN</text>
<polygon fill="none" stroke="#000000" points="190.5,-160.5 190.5,-179.5 196.5,-179.5 196.5,-160.5 190.5,-160.5"/>
<polygon fill="none" stroke="#000000" points="198.5,-160.5 198.5,-179.5 226.5,-179.5 226.5,-160.5 198.5,-160.5"/>
<text text-anchor="start" x="201.5" y="-166.9" font-family="Courier,monospace" font-size="12.00" fill="#000000">0.2</text>
<polygon fill="none" stroke="#000000" points="228.5,-160.5 228.5,-179.5 256.5,-179.5 256.5,-160.5 228.5,-160.5"/>
<text text-anchor="start" x="231.5" y="-166.9" font-family="Courier,monospace" font-size="12.00" fill="#000000">0.2</text>
<polygon fill="none" stroke="#000000" points="258.5,-160.5 258.5,-179.5 271.5,-179.5 271.5,-160.5 258.5,-160.5"/>
<text text-anchor="start" x="261.5" y="-166.9" font-family="Courier,monospace" font-size="12.00" fill="#000000">4</text>
<polygon fill="none" stroke="#000000" points="258.5,-152.5 258.5,-158.5 271.5,-158.5 271.5,-152.5 258.5,-152.5"/>
</g>
<!-- u_20&#45;&gt;u_21 -->
<g id="edge9" class="edge">
<title>u_20:o_0&#45;&gt;u_21:i_0</title>
<path fill="none" stroke="#000000" d="M193.5,-227.5C193.5,-227.5 193.5,-192.0508 193.5,-182.0807"/>
<polygon fill="#000000" stroke="#000000" points="192.5,-179.5 194.5,-179.5 194.5001,-181.5 192.5001,-181.5 192.5,-179.5"/>
<polyline fill="none" stroke="#000000" points="193.5001,-181.5 193.5001,-182 "/>
</g>
<!-- u_22 -->
<g id="node12" class="node">
<title>u_22</title>
<polygon fill="none" stroke="#000000" points="284.5,-85.5 284.5,-104.5 297.5,-104.5 297.5,-85.5 284.5,-85.5"/>
<text text-anchor="start" x="287.5" y="-91.9" font-family="Courier,monospace" font-size="12.00" fill="#000000">*</text>
<polygon fill="none" stroke="#000000" points="299.5,-85.5 299.5,-104.5 305.5,-104.5 305.5,-85.5 299.5,-85.5"/>
<polygon fill="none" stroke="#000000" points="307.5,-85.5 307.5,-104.5 335.5,-104.5 335.5,-85.5 307.5,-85.5"/>
<text text-anchor="start" x="310.5" y="-91.9" font-family="Courier,monospace" font-size="12.00" fill="#000000">0.1</text>
<polygon fill="none" stroke="#000000" points="307.5,-77.5 307.5,-83.5 335.5,-83.5 335.5,-77.5 307.5,-77.5"/>
</g>
<!-- u_21&#45;&gt;u_22 -->
<g id="edge10" class="edge">
<title>u_21:o_0&#45;&gt;u_22:i_0</title>
<path fill="none" stroke="#000000" d="M271.5,-155.5C271.5,-155.5 295.2344,-116.4531 301.168,-106.6914"/>
<polygon fill="#000000" stroke="#000000" points="301.6455,-103.9806 303.3545,-105.0194 302.3157,-106.7285 300.6066,-105.6896 301.6455,-103.9806"/>
<polyline fill="none" stroke="#000000" points="301.4611,-106.2091 301.2014,-106.6363 "/>
</g>
<!-- u_29 -->
<g id="node19" class="node">
<title>u_29</title>
<polygon fill="none" stroke="#000000" points="312.5,-8 312.5,-27 340.5,-27 340.5,-8 312.5,-8"/>
<text text-anchor="start" x="315.5" y="-14.4" font-family="Courier,monospace" font-size="12.00" fill="#000000">Out</text>
<polygon fill="none" stroke="#000000" points="342.5,-8 342.5,-27 356.5,-27 356.5,-8 342.5,-8"/>
<text text-anchor="start" x="345.5" y="-14.4" font-family="Courier,monospace" font-size="12.00" fill="#000000">0</text>
<polygon fill="none" stroke="#000000" points="358.5,-8 358.5,-27 364.5,-27 364.5,-8 358.5,-8"/>
<polygon fill="none" stroke="#000000" points="366.5,-8 366.5,-27 372.5,-27 372.5,-8 366.5,-8"/>
</g>
<!-- u_22&#45;&gt;u_29 -->
<g id="edge18" class="edge">
<title>u_22:o_0&#45;&gt;u_29:i_1</title>
<path fill="none" stroke="#000000" d="M335.5,-80.5C335.5,-80.5 355.4063,-39.5391 360.3828,-29.2988"/>
<polygon fill="#000000" stroke="#000000" points="360.6006,-26.5629 362.3994,-27.4371 361.5252,-29.236 359.7263,-28.3617 360.6006,-26.5629"/>
<polyline fill="none" stroke="#000000" points="360.6258,-28.7988 360.4072,-29.2485 "/>
</g>
<!-- u_24 -->
<g id="node14" class="node">
<title>u_24</title>
<polygon fill="none" stroke="#0000ff" points="261.5,-385.5 261.5,-404.5 317.5,-404.5 317.5,-385.5 261.5,-385.5"/>
<text text-anchor="start" x="264.5" y="-391.9" font-family="Courier,monospace" font-size="12.00" fill="#000000">MIDICPS</text>
<polygon fill="none" stroke="#0000ff" points="319.5,-385.5 319.5,-404.5 325.5,-404.5 325.5,-385.5 319.5,-385.5"/>
<polygon fill="none" stroke="#0000ff" points="319.5,-377.5 319.5,-383.5 325.5,-383.5 325.5,-377.5 319.5,-377.5"/>
</g>
<!-- u_23&#45;&gt;u_24 -->
<g id="edge13" class="edge">
<title>u_23:o_0&#45;&gt;u_24:i_0</title>
<path fill="none" stroke="#0000ff" d="M322.5,-452.5C322.5,-452.5 322.5,-417.0508 322.5,-407.0807"/>
<polygon fill="#0000ff" stroke="#0000ff" points="321.5,-404.5 323.5,-404.5 323.5001,-406.5 321.5001,-406.5 321.5,-404.5"/>
<polyline fill="none" stroke="#0000ff" points="322.5001,-406.5 322.5001,-407 "/>
</g>
<!-- u_25 -->
<g id="node15" class="node">
<title>u_25</title>
<polygon fill="none" stroke="#000000" points="268.5,-310.5 268.5,-329.5 317.5,-329.5 317.5,-310.5 268.5,-310.5"/>
<text text-anchor="start" x="271.5" y="-316.9" font-family="Courier,monospace" font-size="12.00" fill="#000000">SinOsc</text>
<polygon fill="none" stroke="#000000" points="319.5,-310.5 319.5,-329.5 325.5,-329.5 325.5,-310.5 319.5,-310.5"/>
<polygon fill="none" stroke="#000000" points="327.5,-310.5 327.5,-329.5 341.5,-329.5 341.5,-310.5 327.5,-310.5"/>
<text text-anchor="start" x="330.5" y="-316.9" font-family="Courier,monospace" font-size="12.00" fill="#000000">0</text>
<polygon fill="none" stroke="#000000" points="327.5,-302.5 327.5,-308.5 341.5,-308.5 341.5,-302.5 327.5,-302.5"/>
</g>
<!-- u_24&#45;&gt;u_25 -->
<g id="edge14" class="edge">
<title>u_24:o_0&#45;&gt;u_25:i_0</title>
<path fill="none" stroke="#0000ff" d="M322.5,-377.5C322.5,-377.5 322.5,-342.0508 322.5,-332.0807"/>
<polygon fill="#0000ff" stroke="#0000ff" points="321.5,-329.5 323.5,-329.5 323.5001,-331.5 321.5001,-331.5 321.5,-329.5"/>
<polyline fill="none" stroke="#0000ff" points="322.5001,-331.5 322.5001,-332 "/>
</g>
<!-- u_26 -->
<g id="node16" class="node">
<title>u_26</title>
<polygon fill="none" stroke="#000000" points="316.5,-235.5 316.5,-254.5 329.5,-254.5 329.5,-235.5 316.5,-235.5"/>
<text text-anchor="start" x="319.5" y="-241.9" font-family="Courier,monospace" font-size="12.00" fill="#000000">*</text>
<polygon fill="none" stroke="#000000" points="331.5,-235.5 331.5,-254.5 337.5,-254.5 337.5,-235.5 331.5,-235.5"/>
<polygon fill="none" stroke="#000000" points="339.5,-235.5 339.5,-254.5 374.5,-254.5 374.5,-235.5 339.5,-235.5"/>
<text text-anchor="start" x="342.5" y="-241.9" font-family="Courier,monospace" font-size="12.00" fill="#000000">0.04</text>
<polygon fill="none" stroke="#000000" points="339.5,-227.5 339.5,-233.5 374.5,-233.5 374.5,-227.5 339.5,-227.5"/>
</g>
<!-- u_25&#45;&gt;u_26 -->
<g id="edge15" class="edge">
<title>u_25:o_0&#45;&gt;u_26:i_0</title>
<path fill="none" stroke="#000000" d="M334.5,-302.5C334.5,-302.5 334.5,-267.0508 334.5,-257.0807"/>
<polygon fill="#000000" stroke="#000000" points="333.5,-254.5 335.5,-254.5 335.5001,-256.5 333.5001,-256.5 333.5,-254.5"/>
<polyline fill="none" stroke="#000000" points="334.5001,-256.5 334.5001,-257 "/>
</g>
<!-- u_27 -->
<g id="node17" class="node">
<title>u_27</title>
<polygon fill="none" stroke="#000000" points="309.5,-160.5 309.5,-179.5 352.5,-179.5 352.5,-160.5 309.5,-160.5"/>
<text text-anchor="start" x="312.5" y="-166.9" font-family="Courier,monospace" font-size="12.00" fill="#000000">CombN</text>
<polygon fill="none" stroke="#000000" points="354.5,-160.5 354.5,-179.5 360.5,-179.5 360.5,-160.5 354.5,-160.5"/>
<polygon fill="none" stroke="#000000" points="362.5,-160.5 362.5,-179.5 390.5,-179.5 390.5,-160.5 362.5,-160.5"/>
<text text-anchor="start" x="365.5" y="-166.9" font-family="Courier,monospace" font-size="12.00" fill="#000000">0.2</text>
<polygon fill="none" stroke="#000000" points="392.5,-160.5 392.5,-179.5 420.5,-179.5 420.5,-160.5 392.5,-160.5"/>
<text text-anchor="start" x="395.5" y="-166.9" font-family="Courier,monospace" font-size="12.00" fill="#000000">0.2</text>
<polygon fill="none" stroke="#000000" points="422.5,-160.5 422.5,-179.5 435.5,-179.5 435.5,-160.5 422.5,-160.5"/>
<text text-anchor="start" x="425.5" y="-166.9" font-family="Courier,monospace" font-size="12.00" fill="#000000">4</text>
<polygon fill="none" stroke="#000000" points="422.5,-152.5 422.5,-158.5 435.5,-158.5 435.5,-152.5 422.5,-152.5"/>
</g>
<!-- u_26&#45;&gt;u_27 -->
<g id="edge16" class="edge">
<title>u_26:o_0&#45;&gt;u_27:i_0</title>
<path fill="none" stroke="#000000" d="M357.5,-227.5C357.5,-227.5 357.5,-192.0508 357.5,-182.0807"/>
<polygon fill="#000000" stroke="#000000" points="356.5,-179.5 358.5,-179.5 358.5001,-181.5 356.5001,-181.5 356.5,-179.5"/>
<polyline fill="none" stroke="#000000" points="357.5001,-181.5 357.5001,-182 "/>
</g>
<!-- u_28 -->
<g id="node18" class="node">
<title>u_28</title>
<polygon fill="none" stroke="#000000" points="392.5,-85.5 392.5,-104.5 405.5,-104.5 405.5,-85.5 392.5,-85.5"/>
<text text-anchor="start" x="395.5" y="-91.9" font-family="Courier,monospace" font-size="12.00" fill="#000000">*</text>
<polygon fill="none" stroke="#000000" points="407.5,-85.5 407.5,-104.5 413.5,-104.5 413.5,-85.5 407.5,-85.5"/>
<polygon fill="none" stroke="#000000" points="415.5,-85.5 415.5,-104.5 443.5,-104.5 443.5,-85.5 415.5,-85.5"/>
<text text-anchor="start" x="418.5" y="-91.9" font-family="Courier,monospace" font-size="12.00" fill="#000000">0.1</text>
<polygon fill="none" stroke="#000000" points="415.5,-77.5 415.5,-83.5 443.5,-83.5 443.5,-77.5 415.5,-77.5"/>
</g>
<!-- u_27&#45;&gt;u_28 -->
<g id="edge17" class="edge">
<title>u_27:o_0&#45;&gt;u_28:i_0</title>
<path fill="none" stroke="#000000" d="M429.5,-152.5C429.5,-152.5 415.468,-117.0508 411.5215,-107.0807"/>
<polygon fill="#000000" stroke="#000000" points="409.5702,-104.8681 411.4298,-104.1319 412.166,-105.9915 410.3063,-106.7277 409.5702,-104.8681"/>
<polyline fill="none" stroke="#000000" points="411.2361,-106.3596 411.4202,-106.8245 "/>
</g>
<!-- u_28&#45;&gt;u_29 -->
<g id="edge19" class="edge">
<title>u_28:o_0&#45;&gt;u_29:i_2</title>
<path fill="none" stroke="#000000" d="M429.5,-77.5C429.5,-77.5 381.9072,-37.4427 371.4963,-28.6802"/>
<polygon fill="#000000" stroke="#000000" points="368.856,-27.7651 370.144,-26.2349 371.6741,-27.5228 370.3862,-29.053 368.856,-27.7651"/>
<polyline fill="none" stroke="#000000" points="371.0302,-28.2879 371.4127,-28.6099 "/>
</g>
</g>
</svg>
