<?xml version="1.0" encoding="UTF-8" standalone="no"?>
<!DOCTYPE svg PUBLIC "-//W3C//DTD SVG 1.1//EN"
 "http://www.w3.org/Graphics/SVG/1.1/DTD/svg11.dtd">
<!-- Generated by graphviz version 2.40.1 (20161225.0304)
 -->
<!-- Title: Anonymous Pages: 1 -->
<svg width="1189pt" height="794pt"
 viewBox="0.00 0.00 1188.50 794.00" xmlns="http://www.w3.org/2000/svg" xmlns:xlink="http://www.w3.org/1999/xlink">
<g id="graph0" class="graph" transform="scale(1 1) rotate(0) translate(4 790)">
<title>Anonymous</title>
<polygon fill="#ffffff" stroke="transparent" points="-4,4 -4,-790 1184.5,-790 1184.5,4 -4,4"/>
<!-- u_29 -->
<g id="node1" class="node">
<title>u_29</title>
<polygon fill="none" stroke="#0000ff" points="610.5,-760.5 610.5,-779.5 658.5,-779.5 658.5,-760.5 610.5,-760.5"/>
<text text-anchor="start" x="613.5" y="-766.9" font-family="Courier,monospace" font-size="12.00" fill="#000000">MouseX</text>
<polygon fill="none" stroke="#0000ff" points="660.5,-760.5 660.5,-779.5 673.5,-779.5 673.5,-760.5 660.5,-760.5"/>
<text text-anchor="start" x="663.5" y="-766.9" font-family="Courier,monospace" font-size="12.00" fill="#000000">5</text>
<polygon fill="none" stroke="#0000ff" points="675.5,-760.5 675.5,-779.5 696.5,-779.5 696.5,-760.5 675.5,-760.5"/>
<text text-anchor="start" x="678.5" y="-766.9" font-family="Courier,monospace" font-size="12.00" fill="#000000">20</text>
<polygon fill="none" stroke="#0000ff" points="698.5,-760.5 698.5,-779.5 711.5,-779.5 711.5,-760.5 698.5,-760.5"/>
<text text-anchor="start" x="701.5" y="-766.9" font-family="Courier,monospace" font-size="12.00" fill="#000000">1</text>
<polygon fill="none" stroke="#0000ff" points="713.5,-760.5 713.5,-779.5 741.5,-779.5 741.5,-760.5 713.5,-760.5"/>
<text text-anchor="start" x="716.5" y="-766.9" font-family="Courier,monospace" font-size="12.00" fill="#000000">0.2</text>
<polygon fill="none" stroke="#0000ff" points="713.5,-752.5 713.5,-758.5 741.5,-758.5 741.5,-752.5 713.5,-752.5"/>
</g>
<!-- u_30 -->
<g id="node2" class="node">
<title>u_30</title>
<polygon fill="none" stroke="#0000ff" points="820.5,-535.5 820.5,-554.5 833.5,-554.5 833.5,-535.5 820.5,-535.5"/>
<text text-anchor="start" x="823.5" y="-541.9" font-family="Courier,monospace" font-size="12.00" fill="#000000">/</text>
<polygon fill="none" stroke="#0000ff" points="835.5,-535.5 835.5,-554.5 848.5,-554.5 848.5,-535.5 835.5,-535.5"/>
<text text-anchor="start" x="838.5" y="-541.9" font-family="Courier,monospace" font-size="12.00" fill="#000000">1</text>
<polygon fill="none" stroke="#0000ff" points="850.5,-535.5 850.5,-554.5 856.5,-554.5 856.5,-535.5 850.5,-535.5"/>
<polygon fill="none" stroke="#0000ff" points="850.5,-527.5 850.5,-533.5 856.5,-533.5 856.5,-527.5 850.5,-527.5"/>
</g>
<!-- u_29&#45;&gt;u_30 -->
<g id="edge1" class="edge">
<title>u_29:o_0&#45;&gt;u_30:i_1</title>
<path fill="none" stroke="#0000ff" d="M729.4792,-752.2014C743.5435,-728.7609 828.3991,-587.3349 848.9975,-553.0041"/>
<polygon fill="#0000ff" stroke="#0000ff" points="849.5102,-550.206 851.2252,-551.235 850.1962,-552.95 848.4812,-551.921 849.5102,-550.206"/>
<polyline fill="none" stroke="#0000ff" points="849.3387,-552.4355 849.0814,-552.8642 "/>
</g>
<!-- u_33 -->
<g id="node5" class="node">
<title>u_33</title>
<polygon fill="none" stroke="#0000ff" points="445.5,-685.5 445.5,-704.5 499.5,-704.5 499.5,-685.5 445.5,-685.5"/>
<text text-anchor="start" x="448.5" y="-691.9" font-family="Courier,monospace" font-size="12.00" fill="#000000">Impulse</text>
<polygon fill="none" stroke="#0000ff" points="501.5,-685.5 501.5,-704.5 507.5,-704.5 507.5,-685.5 501.5,-685.5"/>
<polygon fill="none" stroke="#0000ff" points="509.5,-685.5 509.5,-704.5 523.5,-704.5 523.5,-685.5 509.5,-685.5"/>
<text text-anchor="start" x="512.5" y="-691.9" font-family="Courier,monospace" font-size="12.00" fill="#000000">0</text>
<polygon fill="none" stroke="#0000ff" points="509.5,-677.5 509.5,-683.5 523.5,-683.5 523.5,-677.5 509.5,-677.5"/>
</g>
<!-- u_29&#45;&gt;u_33 -->
<g id="edge4" class="edge">
<title>u_29:o_0&#45;&gt;u_33:i_0</title>
<path fill="none" stroke="#0000ff" d="M727.5,-752.5C727.5,-752.5 531.5039,-710.3125 507.0044,-705.0391"/>
<polygon fill="#0000ff" stroke="#0000ff" points="504.2895,-705.4776 504.7105,-703.5224 506.6657,-703.9433 506.2448,-705.8985 504.2895,-705.4776"/>
<polyline fill="none" stroke="#0000ff" points="506.4552,-704.9209 506.944,-705.0261 "/>
</g>
<!-- u_31 -->
<g id="node3" class="node">
<title>u_31</title>
<polygon fill="none" stroke="#0000ff" points="798.5,-460.5 798.5,-479.5 811.5,-479.5 811.5,-460.5 798.5,-460.5"/>
<text text-anchor="start" x="801.5" y="-466.9" font-family="Courier,monospace" font-size="12.00" fill="#000000">*</text>
<polygon fill="none" stroke="#0000ff" points="813.5,-460.5 813.5,-479.5 848.5,-479.5 848.5,-460.5 813.5,-460.5"/>
<text text-anchor="start" x="816.5" y="-466.9" font-family="Courier,monospace" font-size="12.00" fill="#000000">0.05</text>
<polygon fill="none" stroke="#0000ff" points="850.5,-460.5 850.5,-479.5 856.5,-479.5 856.5,-460.5 850.5,-460.5"/>
<polygon fill="none" stroke="#0000ff" points="850.5,-452.5 850.5,-458.5 856.5,-458.5 856.5,-452.5 850.5,-452.5"/>
</g>
<!-- u_30&#45;&gt;u_31 -->
<g id="edge2" class="edge">
<title>u_30:o_0&#45;&gt;u_31:i_1</title>
<path fill="none" stroke="#0000ff" d="M853.5,-527.5C853.5,-527.5 853.5,-492.0508 853.5,-482.0807"/>
<polygon fill="#0000ff" stroke="#0000ff" points="852.5,-479.5 854.5,-479.5 854.5001,-481.5 852.5001,-481.5 852.5,-479.5"/>
<polyline fill="none" stroke="#0000ff" points="853.5001,-481.5 853.5001,-482 "/>
</g>
<!-- u_32 -->
<g id="node4" class="node">
<title>u_32</title>
<polygon fill="none" stroke="#0000ff" points="894.5,-460.5 894.5,-479.5 907.5,-479.5 907.5,-460.5 894.5,-460.5"/>
<text text-anchor="start" x="897.5" y="-466.9" font-family="Courier,monospace" font-size="12.00" fill="#000000">*</text>
<polygon fill="none" stroke="#0000ff" points="909.5,-460.5 909.5,-479.5 922.5,-479.5 922.5,-460.5 909.5,-460.5"/>
<text text-anchor="start" x="912.5" y="-466.9" font-family="Courier,monospace" font-size="12.00" fill="#000000">2</text>
<polygon fill="none" stroke="#0000ff" points="924.5,-460.5 924.5,-479.5 930.5,-479.5 930.5,-460.5 924.5,-460.5"/>
<polygon fill="none" stroke="#0000ff" points="924.5,-452.5 924.5,-458.5 930.5,-458.5 930.5,-452.5 924.5,-452.5"/>
</g>
<!-- u_30&#45;&gt;u_32 -->
<g id="edge3" class="edge">
<title>u_30:o_0&#45;&gt;u_32:i_1</title>
<path fill="none" stroke="#0000ff" d="M853.5,-527.5C853.5,-527.5 913.2321,-488.7549 925.3651,-480.8848"/>
<polygon fill="#0000ff" stroke="#0000ff" points="926.9558,-478.661 928.0442,-480.339 926.3663,-481.4274 925.2779,-479.7495 926.9558,-478.661"/>
<polyline fill="none" stroke="#0000ff" points="925.8221,-480.5884 925.4026,-480.8605 "/>
</g>
<!-- u_35 -->
<g id="node7" class="node">
<title>u_35</title>
<polygon fill="none" stroke="#0000ff" points="793.5,-385.5 793.5,-404.5 840.5,-404.5 840.5,-385.5 793.5,-385.5"/>
<text text-anchor="start" x="796.5" y="-391.9" font-family="Courier,monospace" font-size="12.00" fill="#000000">Decay2</text>
<polygon fill="none" stroke="#0000ff" points="842.5,-385.5 842.5,-404.5 848.5,-404.5 848.5,-385.5 842.5,-385.5"/>
<polygon fill="none" stroke="#0000ff" points="850.5,-385.5 850.5,-404.5 856.5,-404.5 856.5,-385.5 850.5,-385.5"/>
<polygon fill="none" stroke="#0000ff" points="858.5,-385.5 858.5,-404.5 864.5,-404.5 864.5,-385.5 858.5,-385.5"/>
<polygon fill="none" stroke="#0000ff" points="858.5,-377.5 858.5,-383.5 864.5,-383.5 864.5,-377.5 858.5,-377.5"/>
</g>
<!-- u_31&#45;&gt;u_35 -->
<g id="edge7" class="edge">
<title>u_31:o_0&#45;&gt;u_35:i_1</title>
<path fill="none" stroke="#0000ff" d="M853.5,-452.5C853.5,-452.5 853.5,-417.0508 853.5,-407.0807"/>
<polygon fill="#0000ff" stroke="#0000ff" points="852.5,-404.5 854.5,-404.5 854.5001,-406.5 852.5001,-406.5 852.5,-404.5"/>
<polyline fill="none" stroke="#0000ff" points="853.5001,-406.5 853.5001,-407 "/>
</g>
<!-- u_32&#45;&gt;u_35 -->
<g id="edge8" class="edge">
<title>u_32:o_0&#45;&gt;u_35:i_2</title>
<path fill="none" stroke="#0000ff" d="M927.5,-452.5C927.5,-452.5 875.1479,-414.4258 863.6959,-406.097"/>
<polygon fill="#0000ff" stroke="#0000ff" points="860.9118,-405.3087 862.0882,-403.6913 863.7057,-404.8676 862.5293,-406.4851 860.9118,-405.3087"/>
<polyline fill="none" stroke="#0000ff" points="863.1175,-405.6764 863.5219,-405.9705 "/>
</g>
<!-- u_34 -->
<g id="node6" class="node">
<title>u_34</title>
<polygon fill="none" stroke="#0000ff" points="325.5,-610.5 325.5,-629.5 413.5,-629.5 413.5,-610.5 325.5,-610.5"/>
<text text-anchor="start" x="328.5" y="-616.9" font-family="Courier,monospace" font-size="12.00" fill="#000000">PulseDivider</text>
<polygon fill="none" stroke="#0000ff" points="415.5,-610.5 415.5,-629.5 421.5,-629.5 421.5,-610.5 415.5,-610.5"/>
<polygon fill="none" stroke="#0000ff" points="423.5,-610.5 423.5,-629.5 444.5,-629.5 444.5,-610.5 423.5,-610.5"/>
<text text-anchor="start" x="426.5" y="-616.9" font-family="Courier,monospace" font-size="12.00" fill="#000000">16</text>
<polygon fill="none" stroke="#0000ff" points="446.5,-610.5 446.5,-629.5 460.5,-629.5 460.5,-610.5 446.5,-610.5"/>
<text text-anchor="start" x="449.5" y="-616.9" font-family="Courier,monospace" font-size="12.00" fill="#000000">0</text>
<polygon fill="none" stroke="#0000ff" points="446.5,-602.5 446.5,-608.5 460.5,-608.5 460.5,-602.5 446.5,-602.5"/>
</g>
<!-- u_33&#45;&gt;u_34 -->
<g id="edge5" class="edge">
<title>u_33:o_0&#45;&gt;u_34:i_0</title>
<path fill="none" stroke="#0000ff" d="M516.5,-677.5C516.5,-677.5 436.0137,-638.0781 420.9225,-630.6865"/>
<polygon fill="#0000ff" stroke="#0000ff" points="418.0601,-630.3981 418.9399,-628.6019 420.736,-629.4817 419.8562,-631.2778 418.0601,-630.3981"/>
<polyline fill="none" stroke="#0000ff" points="420.2961,-630.3798 420.7452,-630.5997 "/>
</g>
<!-- u_33&#45;&gt;u_35 -->
<g id="edge6" class="edge">
<title>u_33:o_0&#45;&gt;u_35:i_0</title>
<path fill="none" stroke="#0000ff" d="M520.1948,-677.2993C553.4189,-648.5185 800.4179,-434.5529 840.1212,-400.1595"/>
<polygon fill="#0000ff" stroke="#0000ff" points="841.589,-397.5649 842.8985,-399.0766 841.3868,-400.3861 840.0773,-398.8744 841.589,-397.5649"/>
<polyline fill="none" stroke="#0000ff" points="840.7321,-399.6303 840.3541,-399.9577 "/>
</g>
<!-- u_38 -->
<g id="node10" class="node">
<title>u_38</title>
<polygon fill="none" stroke="#0000ff" points="206.5,-610.5 206.5,-629.5 254.5,-629.5 254.5,-610.5 206.5,-610.5"/>
<text text-anchor="start" x="209.5" y="-616.9" font-family="Courier,monospace" font-size="12.00" fill="#000000">Demand</text>
<polygon fill="none" stroke="#0000ff" points="256.5,-610.5 256.5,-629.5 262.5,-629.5 262.5,-610.5 256.5,-610.5"/>
<polygon fill="none" stroke="#0000ff" points="264.5,-610.5 264.5,-629.5 278.5,-629.5 278.5,-610.5 264.5,-610.5"/>
<text text-anchor="start" x="267.5" y="-616.9" font-family="Courier,monospace" font-size="12.00" fill="#000000">0</text>
<polygon fill="none" stroke="#0000ff" points="280.5,-610.5 280.5,-629.5 286.5,-629.5 286.5,-610.5 280.5,-610.5"/>
<polygon fill="none" stroke="#0000ff" points="280.5,-602.5 280.5,-608.5 286.5,-608.5 286.5,-602.5 280.5,-602.5"/>
</g>
<!-- u_33&#45;&gt;u_38 -->
<g id="edge10" class="edge">
<title>u_33:o_0&#45;&gt;u_38:i_0</title>
<path fill="none" stroke="#0000ff" d="M516.5,-677.5C516.5,-677.5 288.7348,-634.9602 262.0436,-629.9751"/>
<polygon fill="#0000ff" stroke="#0000ff" points="259.3164,-630.483 259.6836,-628.517 261.6496,-628.8843 261.2824,-630.8503 259.3164,-630.483"/>
<polyline fill="none" stroke="#0000ff" points="261.466,-629.8673 261.9575,-629.9591 "/>
</g>
<!-- u_40 -->
<g id="node12" class="node">
<title>u_40</title>
<polygon fill="none" stroke="#0000ff" points="575.5,-535.5 575.5,-554.5 623.5,-554.5 623.5,-535.5 575.5,-535.5"/>
<text text-anchor="start" x="578.5" y="-541.9" font-family="Courier,monospace" font-size="12.00" fill="#000000">Demand</text>
<polygon fill="none" stroke="#0000ff" points="625.5,-535.5 625.5,-554.5 631.5,-554.5 631.5,-535.5 625.5,-535.5"/>
<polygon fill="none" stroke="#0000ff" points="633.5,-535.5 633.5,-554.5 647.5,-554.5 647.5,-535.5 633.5,-535.5"/>
<text text-anchor="start" x="636.5" y="-541.9" font-family="Courier,monospace" font-size="12.00" fill="#000000">0</text>
<polygon fill="none" stroke="#0000ff" points="649.5,-535.5 649.5,-554.5 655.5,-554.5 655.5,-535.5 649.5,-535.5"/>
<polygon fill="none" stroke="#0000ff" points="649.5,-527.5 649.5,-533.5 655.5,-533.5 655.5,-527.5 649.5,-527.5"/>
</g>
<!-- u_34&#45;&gt;u_40 -->
<g id="edge12" class="edge">
<title>u_34:o_0&#45;&gt;u_40:i_0</title>
<path fill="none" stroke="#0000ff" d="M460.5,-605.5C460.5,-605.5 604.4879,-561.7894 625.8611,-555.3011"/>
<polygon fill="#0000ff" stroke="#0000ff" points="628.2095,-553.5431 628.7905,-555.4569 626.8767,-556.0379 626.2957,-554.1241 628.2095,-553.5431"/>
<polyline fill="none" stroke="#0000ff" points="626.5862,-555.081 626.1078,-555.2263 "/>
</g>
<!-- u_36 -->
<g id="node8" class="node">
<title>u_36</title>
<polygon fill="none" stroke="#0000ff" points="808.5,-310.5 808.5,-329.5 856.5,-329.5 856.5,-310.5 808.5,-310.5"/>
<text text-anchor="start" x="811.5" y="-316.9" font-family="Courier,monospace" font-size="12.00" fill="#000000">MulAdd</text>
<polygon fill="none" stroke="#0000ff" points="858.5,-310.5 858.5,-329.5 864.5,-329.5 864.5,-310.5 858.5,-310.5"/>
<polygon fill="none" stroke="#0000ff" points="866.5,-310.5 866.5,-329.5 894.5,-329.5 894.5,-310.5 866.5,-310.5"/>
<text text-anchor="start" x="869.5" y="-316.9" font-family="Courier,monospace" font-size="12.00" fill="#000000">0.1</text>
<polygon fill="none" stroke="#0000ff" points="896.5,-310.5 896.5,-329.5 931.5,-329.5 931.5,-310.5 896.5,-310.5"/>
<text text-anchor="start" x="899.5" y="-316.9" font-family="Courier,monospace" font-size="12.00" fill="#000000">0.02</text>
<polygon fill="none" stroke="#0000ff" points="896.5,-302.5 896.5,-308.5 931.5,-308.5 931.5,-302.5 896.5,-302.5"/>
</g>
<!-- u_35&#45;&gt;u_36 -->
<g id="edge9" class="edge">
<title>u_35:o_0&#45;&gt;u_36:i_0</title>
<path fill="none" stroke="#0000ff" d="M861.5,-377.5C861.5,-377.5 861.5,-342.0508 861.5,-332.0807"/>
<polygon fill="#0000ff" stroke="#0000ff" points="860.5,-329.5 862.5,-329.5 862.5001,-331.5 860.5001,-331.5 860.5,-329.5"/>
<polyline fill="none" stroke="#0000ff" points="861.5001,-331.5 861.5001,-332 "/>
</g>
<!-- u_45 -->
<g id="node17" class="node">
<title>u_45</title>
<polygon fill="none" stroke="#0000ff" points="947.5,-235.5 947.5,-254.5 995.5,-254.5 995.5,-235.5 947.5,-235.5"/>
<text text-anchor="start" x="950.5" y="-241.9" font-family="Courier,monospace" font-size="12.00" fill="#000000">MulAdd</text>
<polygon fill="none" stroke="#0000ff" points="997.5,-235.5 997.5,-254.5 1003.5,-254.5 1003.5,-235.5 997.5,-235.5"/>
<polygon fill="none" stroke="#0000ff" points="1005.5,-235.5 1005.5,-254.5 1011.5,-254.5 1011.5,-235.5 1005.5,-235.5"/>
<polygon fill="none" stroke="#0000ff" points="1013.5,-235.5 1013.5,-254.5 1048.5,-254.5 1048.5,-235.5 1013.5,-235.5"/>
<text text-anchor="start" x="1016.5" y="-241.9" font-family="Courier,monospace" font-size="12.00" fill="#000000">1400</text>
<polygon fill="none" stroke="#0000ff" points="1013.5,-227.5 1013.5,-233.5 1048.5,-233.5 1048.5,-227.5 1013.5,-227.5"/>
</g>
<!-- u_35&#45;&gt;u_45 -->
<g id="edge18" class="edge">
<title>u_35:o_0&#45;&gt;u_45:i_0</title>
<path fill="none" stroke="#0000ff" d="M864.936,-377.1629C883.6469,-358.9904 973.2343,-271.9811 995.4878,-250.3679"/>
<polygon fill="#0000ff" stroke="#0000ff" points="996.7299,-247.7676 998.1233,-249.2023 996.6886,-250.5958 995.2951,-249.1611 996.7299,-247.7676"/>
<polyline fill="none" stroke="#0000ff" points="995.9919,-249.8784 995.6332,-250.2268 "/>
</g>
<!-- u_49 -->
<g id="node21" class="node">
<title>u_49</title>
<polygon fill="none" stroke="#000000" points="805.5,-235.5 805.5,-254.5 818.5,-254.5 818.5,-235.5 805.5,-235.5"/>
<text text-anchor="start" x="808.5" y="-241.9" font-family="Courier,monospace" font-size="12.00" fill="#000000">*</text>
<polygon fill="none" stroke="#000000" points="820.5,-235.5 820.5,-254.5 826.5,-254.5 826.5,-235.5 820.5,-235.5"/>
<polygon fill="none" stroke="#000000" points="828.5,-235.5 828.5,-254.5 834.5,-254.5 834.5,-235.5 828.5,-235.5"/>
<polygon fill="none" stroke="#000000" points="828.5,-227.5 828.5,-233.5 834.5,-233.5 834.5,-227.5 828.5,-227.5"/>
</g>
<!-- u_36&#45;&gt;u_49 -->
<g id="edge24" class="edge">
<title>u_36:o_0&#45;&gt;u_49:i_1</title>
<path fill="none" stroke="#0000ff" d="M914.5,-302.5C914.5,-302.5 847.5032,-263.7549 833.8945,-255.8848"/>
<polygon fill="#0000ff" stroke="#0000ff" points="830.9994,-255.3657 832.0006,-253.6343 833.732,-254.6356 832.7307,-256.367 830.9994,-255.3657"/>
<polyline fill="none" stroke="#0000ff" points="833.2313,-255.5013 833.6642,-255.7516 "/>
</g>
<!-- u_55 -->
<g id="node27" class="node">
<title>u_55</title>
<polygon fill="none" stroke="#000000" points="877.5,-235.5 877.5,-254.5 890.5,-254.5 890.5,-235.5 877.5,-235.5"/>
<text text-anchor="start" x="880.5" y="-241.9" font-family="Courier,monospace" font-size="12.00" fill="#000000">*</text>
<polygon fill="none" stroke="#000000" points="892.5,-235.5 892.5,-254.5 898.5,-254.5 898.5,-235.5 892.5,-235.5"/>
<polygon fill="none" stroke="#000000" points="900.5,-235.5 900.5,-254.5 906.5,-254.5 906.5,-235.5 900.5,-235.5"/>
<polygon fill="none" stroke="#000000" points="900.5,-227.5 900.5,-233.5 906.5,-233.5 906.5,-227.5 900.5,-227.5"/>
</g>
<!-- u_36&#45;&gt;u_55 -->
<g id="edge32" class="edge">
<title>u_36:o_0&#45;&gt;u_55:i_1</title>
<path fill="none" stroke="#0000ff" d="M914.5,-302.5C914.5,-302.5 906.3762,-267.0508 904.0914,-257.0807"/>
<polygon fill="#0000ff" stroke="#0000ff" points="902.5253,-254.7234 904.4747,-254.2766 904.9215,-256.2261 902.9721,-256.6729 902.5253,-254.7234"/>
<polyline fill="none" stroke="#0000ff" points="903.9468,-256.4495 904.0585,-256.9368 "/>
</g>
<!-- u_37 -->
<g id="node9" class="node">
<title>u_37</title>
<polygon fill="none" stroke="#ff0000" points="10.5,-685.5 10.5,-704.5 44.5,-704.5 44.5,-685.5 10.5,-685.5"/>
<text text-anchor="start" x="13.5" y="-691.9" font-family="Courier,monospace" font-size="12.00" fill="#000000">Dseq</text>
<polygon fill="none" stroke="#ff0000" points="46.5,-685.5 46.5,-704.5 108.5,-704.5 108.5,-685.5 46.5,-685.5"/>
<text text-anchor="start" x="49.5" y="-691.9" font-family="Courier,monospace" font-size="12.00" fill="#000000">Infinity</text>
<polygon fill="none" stroke="#ff0000" points="110.5,-685.5 110.5,-704.5 130.5,-704.5 130.5,-685.5 110.5,-685.5"/>
<text text-anchor="start" x="113.5" y="-691.9" font-family="Courier,monospace" font-size="12.00" fill="#000000">55</text>
<polygon fill="none" stroke="#ff0000" points="132.5,-685.5 132.5,-704.5 154.5,-704.5 154.5,-685.5 132.5,-685.5"/>
<text text-anchor="start" x="135.5" y="-691.9" font-family="Courier,monospace" font-size="12.00" fill="#000000">60</text>
<polygon fill="none" stroke="#ff0000" points="156.5,-685.5 156.5,-704.5 177.5,-704.5 177.5,-685.5 156.5,-685.5"/>
<text text-anchor="start" x="159.5" y="-691.9" font-family="Courier,monospace" font-size="12.00" fill="#000000">63</text>
<polygon fill="none" stroke="#ff0000" points="179.5,-685.5 179.5,-704.5 200.5,-704.5 200.5,-685.5 179.5,-685.5"/>
<text text-anchor="start" x="182.5" y="-691.9" font-family="Courier,monospace" font-size="12.00" fill="#000000">62</text>
<polygon fill="none" stroke="#ff0000" points="202.5,-685.5 202.5,-704.5 224.5,-704.5 224.5,-685.5 202.5,-685.5"/>
<text text-anchor="start" x="205.5" y="-691.9" font-family="Courier,monospace" font-size="12.00" fill="#000000">60</text>
<polygon fill="none" stroke="#ff0000" points="226.5,-685.5 226.5,-704.5 247.5,-704.5 247.5,-685.5 226.5,-685.5"/>
<text text-anchor="start" x="229.5" y="-691.9" font-family="Courier,monospace" font-size="12.00" fill="#000000">67</text>
<polygon fill="none" stroke="#ff0000" points="249.5,-685.5 249.5,-704.5 270.5,-704.5 270.5,-685.5 249.5,-685.5"/>
<text text-anchor="start" x="252.5" y="-691.9" font-family="Courier,monospace" font-size="12.00" fill="#000000">63</text>
<polygon fill="none" stroke="#ff0000" points="272.5,-685.5 272.5,-704.5 293.5,-704.5 293.5,-685.5 272.5,-685.5"/>
<text text-anchor="start" x="275.5" y="-691.9" font-family="Courier,monospace" font-size="12.00" fill="#000000">58</text>
<polygon fill="none" stroke="#ff0000" points="272.5,-677.5 272.5,-683.5 293.5,-683.5 293.5,-677.5 272.5,-677.5"/>
</g>
<!-- u_37&#45;&gt;u_38 -->
<g id="edge11" class="edge">
<title>u_37:o_0&#45;&gt;u_38:i_2</title>
<path fill="none" stroke="#ff0000" d="M283.5,-677.5C283.5,-677.5 283.5,-642.0508 283.5,-632.0807"/>
<polygon fill="#ff0000" stroke="#ff0000" points="282.5,-629.5 284.5,-629.5 284.5001,-631.5 282.5001,-631.5 282.5,-629.5"/>
<polyline fill="none" stroke="#ff0000" points="283.5001,-631.5 283.5001,-632 "/>
</g>
<!-- u_41 -->
<g id="node13" class="node">
<title>u_41</title>
<polygon fill="none" stroke="#0000ff" points="634.5,-460.5 634.5,-479.5 647.5,-479.5 647.5,-460.5 634.5,-460.5"/>
<text text-anchor="start" x="637.5" y="-466.9" font-family="Courier,monospace" font-size="12.00" fill="#000000">+</text>
<polygon fill="none" stroke="#0000ff" points="649.5,-460.5 649.5,-479.5 655.5,-479.5 655.5,-460.5 649.5,-460.5"/>
<polygon fill="none" stroke="#0000ff" points="657.5,-460.5 657.5,-479.5 663.5,-479.5 663.5,-460.5 657.5,-460.5"/>
<polygon fill="none" stroke="#0000ff" points="657.5,-452.5 657.5,-458.5 663.5,-458.5 663.5,-452.5 657.5,-452.5"/>
</g>
<!-- u_38&#45;&gt;u_41 -->
<g id="edge15" class="edge">
<title>u_38:o_0&#45;&gt;u_41:i_1</title>
<path fill="none" stroke="#0000ff" d="M286.7592,-604.3329C320.7703,-592.1539 610.4096,-488.4369 654.8013,-472.5407"/>
<polygon fill="#0000ff" stroke="#0000ff" points="656.8211,-470.7552 657.4954,-472.6381 655.6125,-473.3124 654.9382,-471.4295 656.8211,-470.7552"/>
<polyline fill="none" stroke="#0000ff" points="655.2753,-472.371 654.8046,-472.5395 "/>
</g>
<!-- u_39 -->
<g id="node11" class="node">
<title>u_39</title>
<polygon fill="none" stroke="#ff0000" points="498.5,-610.5 498.5,-629.5 539.5,-629.5 539.5,-610.5 498.5,-610.5"/>
<text text-anchor="start" x="501.5" y="-616.9" font-family="Courier,monospace" font-size="12.00" fill="#000000">Dshuf</text>
<polygon fill="none" stroke="#ff0000" points="541.5,-610.5 541.5,-629.5 603.5,-629.5 603.5,-610.5 541.5,-610.5"/>
<text text-anchor="start" x="544.5" y="-616.9" font-family="Courier,monospace" font-size="12.00" fill="#000000">Infinity</text>
<polygon fill="none" stroke="#ff0000" points="605.5,-610.5 605.5,-629.5 632.5,-629.5 632.5,-610.5 605.5,-610.5"/>
<text text-anchor="start" x="608.5" y="-616.9" font-family="Courier,monospace" font-size="12.00" fill="#000000">&#45;12</text>
<polygon fill="none" stroke="#ff0000" points="634.5,-610.5 634.5,-629.5 654.5,-629.5 654.5,-610.5 634.5,-610.5"/>
<text text-anchor="start" x="637.5" y="-616.9" font-family="Courier,monospace" font-size="12.00" fill="#000000">&#45;7</text>
<polygon fill="none" stroke="#ff0000" points="656.5,-610.5 656.5,-629.5 676.5,-629.5 676.5,-610.5 656.5,-610.5"/>
<text text-anchor="start" x="659.5" y="-616.9" font-family="Courier,monospace" font-size="12.00" fill="#000000">&#45;5</text>
<polygon fill="none" stroke="#ff0000" points="678.5,-610.5 678.5,-629.5 692.5,-629.5 692.5,-610.5 678.5,-610.5"/>
<text text-anchor="start" x="681.5" y="-616.9" font-family="Courier,monospace" font-size="12.00" fill="#000000">0</text>
<polygon fill="none" stroke="#ff0000" points="694.5,-610.5 694.5,-629.5 707.5,-629.5 707.5,-610.5 694.5,-610.5"/>
<text text-anchor="start" x="697.5" y="-616.9" font-family="Courier,monospace" font-size="12.00" fill="#000000">2</text>
<polygon fill="none" stroke="#ff0000" points="709.5,-610.5 709.5,-629.5 722.5,-629.5 722.5,-610.5 709.5,-610.5"/>
<text text-anchor="start" x="712.5" y="-616.9" font-family="Courier,monospace" font-size="12.00" fill="#000000">5</text>
<polygon fill="none" stroke="#ff0000" points="709.5,-602.5 709.5,-608.5 722.5,-608.5 722.5,-602.5 709.5,-602.5"/>
</g>
<!-- u_39&#45;&gt;u_40 -->
<g id="edge13" class="edge">
<title>u_39:o_0&#45;&gt;u_40:i_2</title>
<path fill="none" stroke="#ff0000" d="M716.5,-602.5C716.5,-602.5 665.7344,-564.4258 654.6294,-556.097"/>
<polygon fill="#ff0000" stroke="#ff0000" points="651.9,-555.3 653.1,-553.7 654.7,-554.9 653.5,-556.5 651.9,-555.3"/>
<polyline fill="none" stroke="#ff0000" points="654.1,-555.7 654.5,-556 "/>
</g>
<!-- u_40&#45;&gt;u_41 -->
<g id="edge14" class="edge">
<title>u_40:o_0&#45;&gt;u_41:i_0</title>
<path fill="none" stroke="#0000ff" d="M652.5,-527.5C652.5,-527.5 652.5,-492.0508 652.5,-482.0807"/>
<polygon fill="#0000ff" stroke="#0000ff" points="651.5,-479.5 653.5,-479.5 653.5001,-481.5 651.5001,-481.5 651.5,-479.5"/>
<polyline fill="none" stroke="#0000ff" points="652.5001,-481.5 652.5001,-482 "/>
</g>
<!-- u_42 -->
<g id="node14" class="node">
<title>u_42</title>
<polygon fill="none" stroke="#0000ff" points="646.5,-385.5 646.5,-404.5 702.5,-404.5 702.5,-385.5 646.5,-385.5"/>
<text text-anchor="start" x="649.5" y="-391.9" font-family="Courier,monospace" font-size="12.00" fill="#000000">MIDICPS</text>
<polygon fill="none" stroke="#0000ff" points="704.5,-385.5 704.5,-404.5 710.5,-404.5 710.5,-385.5 704.5,-385.5"/>
<polygon fill="none" stroke="#0000ff" points="704.5,-377.5 704.5,-383.5 710.5,-383.5 710.5,-377.5 704.5,-377.5"/>
</g>
<!-- u_41&#45;&gt;u_42 -->
<g id="edge16" class="edge">
<title>u_41:o_0&#45;&gt;u_42:i_0</title>
<path fill="none" stroke="#0000ff" d="M660.5,-452.5C660.5,-452.5 696.4844,-415.75 705.4805,-406.5625"/>
<polygon fill="#0000ff" stroke="#0000ff" points="706.7855,-403.8004 708.2145,-405.1996 706.8152,-406.6287 705.3862,-405.2294 706.7855,-403.8004"/>
<polyline fill="none" stroke="#0000ff" points="706.1007,-405.929 705.7509,-406.2863 "/>
</g>
<!-- u_48 -->
<g id="node20" class="node">
<title>u_48</title>
<polygon fill="none" stroke="#000000" points="619.5,-310.5 619.5,-329.5 659.5,-329.5 659.5,-310.5 619.5,-310.5"/>
<text text-anchor="start" x="622.5" y="-316.9" font-family="Courier,monospace" font-size="12.00" fill="#000000">Pulse</text>
<polygon fill="none" stroke="#000000" points="661.5,-310.5 661.5,-329.5 667.5,-329.5 667.5,-310.5 661.5,-310.5"/>
<polygon fill="none" stroke="#000000" points="669.5,-310.5 669.5,-329.5 675.5,-329.5 675.5,-310.5 669.5,-310.5"/>
<polygon fill="none" stroke="#000000" points="669.5,-302.5 669.5,-308.5 675.5,-308.5 675.5,-302.5 669.5,-302.5"/>
</g>
<!-- u_42&#45;&gt;u_48 -->
<g id="edge21" class="edge">
<title>u_42:o_0&#45;&gt;u_48:i_0</title>
<path fill="none" stroke="#0000ff" d="M707.5,-377.5C707.5,-377.5 674.5781,-340.75 666.3477,-331.5625"/>
<polygon fill="#0000ff" stroke="#0000ff" points="663.7552,-330.1673 665.2448,-328.8327 666.5794,-330.3224 665.0897,-331.6569 663.7552,-330.1673"/>
<polyline fill="none" stroke="#0000ff" points="665.8345,-330.9897 666.1682,-331.3621 "/>
</g>
<!-- u_54 -->
<g id="node26" class="node">
<title>u_54</title>
<polygon fill="none" stroke="#000000" points="713.5,-310.5 713.5,-329.5 753.5,-329.5 753.5,-310.5 713.5,-310.5"/>
<text text-anchor="start" x="716.5" y="-316.9" font-family="Courier,monospace" font-size="12.00" fill="#000000">Pulse</text>
<polygon fill="none" stroke="#000000" points="755.5,-310.5 755.5,-329.5 761.5,-329.5 761.5,-310.5 755.5,-310.5"/>
<polygon fill="none" stroke="#000000" points="763.5,-310.5 763.5,-329.5 769.5,-329.5 769.5,-310.5 763.5,-310.5"/>
<polygon fill="none" stroke="#000000" points="763.5,-302.5 763.5,-308.5 769.5,-308.5 769.5,-302.5 763.5,-302.5"/>
</g>
<!-- u_42&#45;&gt;u_54 -->
<g id="edge29" class="edge">
<title>u_42:o_0&#45;&gt;u_54:i_0</title>
<path fill="none" stroke="#0000ff" d="M707.5,-377.5C707.5,-377.5 746.5469,-340.75 756.3086,-331.5625"/>
<polygon fill="#0000ff" stroke="#0000ff" points="757.8146,-328.7718 759.1854,-330.2282 757.729,-331.599 756.3582,-330.1425 757.8146,-328.7718"/>
<polyline fill="none" stroke="#0000ff" points="757.0436,-330.8708 756.6795,-331.2134 "/>
</g>
<!-- u_43 -->
<g id="node15" class="node">
<title>u_43</title>
<polygon fill="none" stroke="#0000ff" points="1062.5,-385.5 1062.5,-404.5 1118.5,-404.5 1118.5,-385.5 1062.5,-385.5"/>
<text text-anchor="start" x="1065.5" y="-391.9" font-family="Courier,monospace" font-size="12.00" fill="#000000">FSinOsc</text>
<polygon fill="none" stroke="#0000ff" points="1120.5,-385.5 1120.5,-404.5 1154.5,-404.5 1154.5,-385.5 1120.5,-385.5"/>
<text text-anchor="start" x="1123.5" y="-391.9" font-family="Courier,monospace" font-size="12.00" fill="#000000">0.17</text>
<polygon fill="none" stroke="#0000ff" points="1156.5,-385.5 1156.5,-404.5 1170.5,-404.5 1170.5,-385.5 1156.5,-385.5"/>
<text text-anchor="start" x="1159.5" y="-391.9" font-family="Courier,monospace" font-size="12.00" fill="#000000">0</text>
<polygon fill="none" stroke="#0000ff" points="1156.5,-377.5 1156.5,-383.5 1170.5,-383.5 1170.5,-377.5 1156.5,-377.5"/>
</g>
<!-- u_44 -->
<g id="node16" class="node">
<title>u_44</title>
<polygon fill="none" stroke="#0000ff" points="1086.5,-310.5 1086.5,-329.5 1099.5,-329.5 1099.5,-310.5 1086.5,-310.5"/>
<text text-anchor="start" x="1089.5" y="-316.9" font-family="Courier,monospace" font-size="12.00" fill="#000000">*</text>
<polygon fill="none" stroke="#0000ff" points="1101.5,-310.5 1101.5,-329.5 1107.5,-329.5 1107.5,-310.5 1101.5,-310.5"/>
<polygon fill="none" stroke="#0000ff" points="1109.5,-310.5 1109.5,-329.5 1138.5,-329.5 1138.5,-310.5 1109.5,-310.5"/>
<text text-anchor="start" x="1112.5" y="-316.9" font-family="Courier,monospace" font-size="12.00" fill="#000000">800</text>
<polygon fill="none" stroke="#0000ff" points="1109.5,-302.5 1109.5,-308.5 1138.5,-308.5 1138.5,-302.5 1109.5,-302.5"/>
</g>
<!-- u_43&#45;&gt;u_44 -->
<g id="edge17" class="edge">
<title>u_43:o_0&#45;&gt;u_44:i_0</title>
<path fill="none" stroke="#0000ff" d="M1163.5,-377.5C1163.5,-377.5 1116.7004,-339.4258 1106.463,-331.097"/>
<polygon fill="#0000ff" stroke="#0000ff" points="1103.8689,-330.2757 1105.1311,-328.7243 1106.6825,-329.9865 1105.4203,-331.5379 1103.8689,-330.2757"/>
<polyline fill="none" stroke="#0000ff" points="1106.0514,-330.7622 1106.4393,-331.0778 "/>
</g>
<!-- u_44&#45;&gt;u_45 -->
<g id="edge19" class="edge">
<title>u_44:o_0&#45;&gt;u_45:i_1</title>
<path fill="none" stroke="#0000ff" d="M1124.5,-302.5C1124.5,-302.5 1027.5808,-262.3955 1010.9228,-255.5025"/>
<polygon fill="#0000ff" stroke="#0000ff" points="1008.1176,-255.424 1008.8824,-253.576 1010.7304,-254.3407 1009.9657,-256.1888 1008.1176,-255.424"/>
<polyline fill="none" stroke="#0000ff" points="1010.348,-255.2648 1010.81,-255.4559 "/>
</g>
<!-- u_50 -->
<g id="node22" class="node">
<title>u_50</title>
<polygon fill="none" stroke="#000000" points="799.5,-160.5 799.5,-179.5 833.5,-179.5 833.5,-160.5 799.5,-160.5"/>
<text text-anchor="start" x="802.5" y="-166.9" font-family="Courier,monospace" font-size="12.00" fill="#000000">RLPF</text>
<polygon fill="none" stroke="#000000" points="835.5,-160.5 835.5,-179.5 841.5,-179.5 841.5,-160.5 835.5,-160.5"/>
<polygon fill="none" stroke="#000000" points="843.5,-160.5 843.5,-179.5 849.5,-179.5 849.5,-160.5 843.5,-160.5"/>
<polygon fill="none" stroke="#000000" points="851.5,-160.5 851.5,-179.5 885.5,-179.5 885.5,-160.5 851.5,-160.5"/>
<text text-anchor="start" x="854.5" y="-166.9" font-family="Courier,monospace" font-size="12.00" fill="#000000">0.15</text>
<polygon fill="none" stroke="#000000" points="851.5,-152.5 851.5,-158.5 885.5,-158.5 885.5,-152.5 851.5,-152.5"/>
</g>
<!-- u_45&#45;&gt;u_50 -->
<g id="edge26" class="edge">
<title>u_45:o_0&#45;&gt;u_50:i_1</title>
<path fill="none" stroke="#0000ff" d="M1031.5,-227.5C1031.5,-227.5 871.601,-186.0127 849.1152,-180.1785"/>
<polygon fill="#0000ff" stroke="#0000ff" points="846.2488,-180.468 846.7512,-178.532 848.6871,-179.0344 848.1847,-180.9703 846.2488,-180.468"/>
<polyline fill="none" stroke="#0000ff" points="848.4359,-180.0023 848.9199,-180.1279 "/>
</g>
<!-- u_56 -->
<g id="node28" class="node">
<title>u_56</title>
<polygon fill="none" stroke="#000000" points="977.5,-160.5 977.5,-179.5 1011.5,-179.5 1011.5,-160.5 977.5,-160.5"/>
<text text-anchor="start" x="980.5" y="-166.9" font-family="Courier,monospace" font-size="12.00" fill="#000000">RLPF</text>
<polygon fill="none" stroke="#000000" points="1013.5,-160.5 1013.5,-179.5 1019.5,-179.5 1019.5,-160.5 1013.5,-160.5"/>
<polygon fill="none" stroke="#000000" points="1021.5,-160.5 1021.5,-179.5 1027.5,-179.5 1027.5,-160.5 1021.5,-160.5"/>
<polygon fill="none" stroke="#000000" points="1029.5,-160.5 1029.5,-179.5 1063.5,-179.5 1063.5,-160.5 1029.5,-160.5"/>
<text text-anchor="start" x="1032.5" y="-166.9" font-family="Courier,monospace" font-size="12.00" fill="#000000">0.15</text>
<polygon fill="none" stroke="#000000" points="1029.5,-152.5 1029.5,-158.5 1063.5,-158.5 1063.5,-152.5 1029.5,-152.5"/>
</g>
<!-- u_45&#45;&gt;u_56 -->
<g id="edge34" class="edge">
<title>u_45:o_0&#45;&gt;u_56:i_1</title>
<path fill="none" stroke="#0000ff" d="M1031.5,-227.5C1031.5,-227.5 1026.3303,-192.0508 1024.8764,-182.0807"/>
<polygon fill="#0000ff" stroke="#0000ff" points="1023.5105,-179.6443 1025.4895,-179.3557 1025.7782,-181.3347 1023.7991,-181.6234 1023.5105,-179.6443"/>
<polyline fill="none" stroke="#0000ff" points="1024.7887,-181.4791 1024.8608,-181.9738 "/>
</g>
<!-- u_46 -->
<g id="node18" class="node">
<title>u_46</title>
<polygon fill="none" stroke="#0000ff" points="443.5,-460.5 443.5,-479.5 492.5,-479.5 492.5,-460.5 443.5,-460.5"/>
<text text-anchor="start" x="446.5" y="-466.9" font-family="Courier,monospace" font-size="12.00" fill="#000000">SinOsc</text>
<polygon fill="none" stroke="#0000ff" points="494.5,-460.5 494.5,-479.5 530.5,-479.5 530.5,-460.5 494.5,-460.5"/>
<text text-anchor="start" x="497.5" y="-466.9" font-family="Courier,monospace" font-size="12.00" fill="#000000">0.08</text>
<polygon fill="none" stroke="#0000ff" points="532.5,-460.5 532.5,-479.5 546.5,-479.5 546.5,-460.5 532.5,-460.5"/>
<text text-anchor="start" x="535.5" y="-466.9" font-family="Courier,monospace" font-size="12.00" fill="#000000">0</text>
<polygon fill="none" stroke="#0000ff" points="532.5,-452.5 532.5,-458.5 546.5,-458.5 546.5,-452.5 532.5,-452.5"/>
</g>
<!-- u_47 -->
<g id="node19" class="node">
<title>u_47</title>
<polygon fill="none" stroke="#0000ff" points="486.5,-385.5 486.5,-404.5 534.5,-404.5 534.5,-385.5 486.5,-385.5"/>
<text text-anchor="start" x="489.5" y="-391.9" font-family="Courier,monospace" font-size="12.00" fill="#000000">MulAdd</text>
<polygon fill="none" stroke="#0000ff" points="536.5,-385.5 536.5,-404.5 542.5,-404.5 542.5,-385.5 536.5,-385.5"/>
<polygon fill="none" stroke="#0000ff" points="544.5,-385.5 544.5,-404.5 578.5,-404.5 578.5,-385.5 544.5,-385.5"/>
<text text-anchor="start" x="547.5" y="-391.9" font-family="Courier,monospace" font-size="12.00" fill="#000000">0.45</text>
<polygon fill="none" stroke="#0000ff" points="580.5,-385.5 580.5,-404.5 608.5,-404.5 608.5,-385.5 580.5,-385.5"/>
<text text-anchor="start" x="583.5" y="-391.9" font-family="Courier,monospace" font-size="12.00" fill="#000000">0.5</text>
<polygon fill="none" stroke="#0000ff" points="580.5,-377.5 580.5,-383.5 608.5,-383.5 608.5,-377.5 580.5,-377.5"/>
</g>
<!-- u_46&#45;&gt;u_47 -->
<g id="edge20" class="edge">
<title>u_46:o_0&#45;&gt;u_47:i_0</title>
<path fill="none" stroke="#0000ff" d="M539.5,-452.5C539.5,-452.5 539.5,-417.0508 539.5,-407.0807"/>
<polygon fill="#0000ff" stroke="#0000ff" points="538.5,-404.5 540.5,-404.5 540.5001,-406.5 538.5001,-406.5 538.5,-404.5"/>
<polyline fill="none" stroke="#0000ff" points="539.5001,-406.5 539.5001,-407 "/>
</g>
<!-- u_47&#45;&gt;u_48 -->
<g id="edge22" class="edge">
<title>u_47:o_0&#45;&gt;u_48:i_1</title>
<path fill="none" stroke="#0000ff" d="M608.5,-380.5C608.5,-380.5 659.2656,-340.0461 670.3706,-331.1969"/>
<polygon fill="#0000ff" stroke="#0000ff" points="671.8768,-328.7179 673.1232,-330.2821 671.5591,-331.5285 670.3126,-329.9644 671.8768,-328.7179"/>
<polyline fill="none" stroke="#0000ff" points="670.9359,-330.7464 670.5448,-331.058 "/>
</g>
<!-- u_48&#45;&gt;u_49 -->
<g id="edge23" class="edge">
<title>u_48:o_0&#45;&gt;u_49:i_0</title>
<path fill="none" stroke="#000000" d="M675.5,-305.5C675.5,-305.5 801.2783,-262.1575 820.9312,-255.3852"/>
<polygon fill="#000000" stroke="#000000" points="823.1742,-253.5546 823.8258,-255.4454 821.9349,-256.0971 821.2833,-254.2062 823.1742,-253.5546"/>
<polyline fill="none" stroke="#000000" points="821.6091,-255.1516 821.1364,-255.3145 "/>
</g>
<!-- u_49&#45;&gt;u_50 -->
<g id="edge25" class="edge">
<title>u_49:o_0&#45;&gt;u_50:i_0</title>
<path fill="none" stroke="#000000" d="M831.5,-227.5C831.5,-227.5 836.6697,-192.0508 838.1236,-182.0807"/>
<polygon fill="#000000" stroke="#000000" points="837.5105,-179.3557 839.4895,-179.6443 839.2009,-181.6234 837.2218,-181.3347 837.5105,-179.3557"/>
<polyline fill="none" stroke="#000000" points="838.2113,-181.4791 838.1392,-181.9738 "/>
</g>
<!-- u_51 -->
<g id="node23" class="node">
<title>u_51</title>
<polygon fill="none" stroke="#000000" points="820.5,-85.5 820.5,-104.5 863.5,-104.5 863.5,-85.5 820.5,-85.5"/>
<text text-anchor="start" x="823.5" y="-91.9" font-family="Courier,monospace" font-size="12.00" fill="#000000">CombN</text>
<polygon fill="none" stroke="#000000" points="865.5,-85.5 865.5,-104.5 871.5,-104.5 871.5,-85.5 865.5,-85.5"/>
<polygon fill="none" stroke="#000000" points="873.5,-85.5 873.5,-104.5 901.5,-104.5 901.5,-85.5 873.5,-85.5"/>
<text text-anchor="start" x="876.5" y="-91.9" font-family="Courier,monospace" font-size="12.00" fill="#000000">0.2</text>
<polygon fill="none" stroke="#000000" points="903.5,-85.5 903.5,-104.5 931.5,-104.5 931.5,-85.5 903.5,-85.5"/>
<text text-anchor="start" x="906.5" y="-91.9" font-family="Courier,monospace" font-size="12.00" fill="#000000">0.2</text>
<polygon fill="none" stroke="#000000" points="933.5,-85.5 933.5,-104.5 960.5,-104.5 960.5,-85.5 933.5,-85.5"/>
<text text-anchor="start" x="936.5" y="-91.9" font-family="Courier,monospace" font-size="12.00" fill="#000000">1.5</text>
<polygon fill="none" stroke="#000000" points="933.5,-77.5 933.5,-83.5 960.5,-83.5 960.5,-77.5 933.5,-77.5"/>
</g>
<!-- u_50&#45;&gt;u_51 -->
<g id="edge27" class="edge">
<title>u_50:o_0&#45;&gt;u_51:i_0</title>
<path fill="none" stroke="#000000" d="M885.5,-155.5C885.5,-155.5 872.7158,-117.1473 869.3199,-106.9598"/>
<polygon fill="#000000" stroke="#000000" points="867.5513,-104.8163 869.4487,-104.1837 870.0812,-106.0811 868.1838,-106.7136 867.5513,-104.8163"/>
<polyline fill="none" stroke="#000000" points="869.1325,-106.3974 869.2906,-106.8717 "/>
</g>
<!-- u_58 -->
<g id="node30" class="node">
<title>u_58</title>
<polygon fill="none" stroke="#000000" points="986.5,-8 986.5,-27 1014.5,-27 1014.5,-8 986.5,-8"/>
<text text-anchor="start" x="989.5" y="-14.4" font-family="Courier,monospace" font-size="12.00" fill="#000000">Out</text>
<polygon fill="none" stroke="#000000" points="1016.5,-8 1016.5,-27 1030.5,-27 1030.5,-8 1016.5,-8"/>
<text text-anchor="start" x="1019.5" y="-14.4" font-family="Courier,monospace" font-size="12.00" fill="#000000">0</text>
<polygon fill="none" stroke="#000000" points="1032.5,-8 1032.5,-27 1038.5,-27 1038.5,-8 1032.5,-8"/>
<polygon fill="none" stroke="#000000" points="1040.5,-8 1040.5,-27 1046.5,-27 1046.5,-8 1040.5,-8"/>
</g>
<!-- u_51&#45;&gt;u_58 -->
<g id="edge36" class="edge">
<title>u_51:o_0&#45;&gt;u_58:i_1</title>
<path fill="none" stroke="#000000" d="M960.5,-80.5C960.5,-80.5 1021.0392,-37.3153 1033.3363,-28.5435"/>
<polygon fill="#000000" stroke="#000000" points="1034.9193,-26.1859 1036.0807,-27.8141 1034.4525,-28.9756 1033.291,-27.3474 1034.9193,-26.1859"/>
<polyline fill="none" stroke="#000000" points="1033.8718,-28.1615 1033.4647,-28.4519 "/>
</g>
<!-- u_52 -->
<g id="node24" class="node">
<title>u_52</title>
<polygon fill="none" stroke="#0000ff" points="968.5,-460.5 968.5,-479.5 1017.5,-479.5 1017.5,-460.5 968.5,-460.5"/>
<text text-anchor="start" x="971.5" y="-466.9" font-family="Courier,monospace" font-size="12.00" fill="#000000">SinOsc</text>
<polygon fill="none" stroke="#0000ff" points="1019.5,-460.5 1019.5,-479.5 1055.5,-479.5 1055.5,-460.5 1019.5,-460.5"/>
<text text-anchor="start" x="1022.5" y="-466.9" font-family="Courier,monospace" font-size="12.00" fill="#000000">0.08</text>
<polygon fill="none" stroke="#0000ff" points="1057.5,-460.5 1057.5,-479.5 1097.5,-479.5 1097.5,-460.5 1057.5,-460.5"/>
<text text-anchor="start" x="1060.5" y="-466.9" font-family="Courier,monospace" font-size="12.00" fill="#000000">1.571</text>
<polygon fill="none" stroke="#0000ff" points="1057.5,-452.5 1057.5,-458.5 1097.5,-458.5 1097.5,-452.5 1057.5,-452.5"/>
</g>
<!-- u_53 -->
<g id="node25" class="node">
<title>u_53</title>
<polygon fill="none" stroke="#0000ff" points="902.5,-385.5 902.5,-404.5 950.5,-404.5 950.5,-385.5 902.5,-385.5"/>
<text text-anchor="start" x="905.5" y="-391.9" font-family="Courier,monospace" font-size="12.00" fill="#000000">MulAdd</text>
<polygon fill="none" stroke="#0000ff" points="952.5,-385.5 952.5,-404.5 958.5,-404.5 958.5,-385.5 952.5,-385.5"/>
<polygon fill="none" stroke="#0000ff" points="960.5,-385.5 960.5,-404.5 994.5,-404.5 994.5,-385.5 960.5,-385.5"/>
<text text-anchor="start" x="963.5" y="-391.9" font-family="Courier,monospace" font-size="12.00" fill="#000000">0.45</text>
<polygon fill="none" stroke="#0000ff" points="996.5,-385.5 996.5,-404.5 1024.5,-404.5 1024.5,-385.5 996.5,-385.5"/>
<text text-anchor="start" x="999.5" y="-391.9" font-family="Courier,monospace" font-size="12.00" fill="#000000">0.5</text>
<polygon fill="none" stroke="#0000ff" points="996.5,-377.5 996.5,-383.5 1024.5,-383.5 1024.5,-377.5 996.5,-377.5"/>
</g>
<!-- u_52&#45;&gt;u_53 -->
<g id="edge28" class="edge">
<title>u_52:o_0&#45;&gt;u_53:i_0</title>
<path fill="none" stroke="#0000ff" d="M1077.5,-452.5C1077.5,-452.5 975.5677,-412.3955 958.0481,-405.5025"/>
<polygon fill="#0000ff" stroke="#0000ff" points="955.1339,-405.4306 955.8661,-403.5694 957.7273,-404.3017 956.995,-406.1629 955.1339,-405.4306"/>
<polyline fill="none" stroke="#0000ff" points="957.3611,-405.2323 957.8264,-405.4154 "/>
</g>
<!-- u_53&#45;&gt;u_54 -->
<g id="edge30" class="edge">
<title>u_53:o_0&#45;&gt;u_54:i_1</title>
<path fill="none" stroke="#0000ff" d="M1010.5,-377.5C1010.5,-377.5 796.0469,-335.3125 769.2402,-330.0391"/>
<polygon fill="#0000ff" stroke="#0000ff" points="766.3069,-330.4812 766.6931,-328.5188 768.6554,-328.9049 768.2693,-330.8673 766.3069,-330.4812"/>
<polyline fill="none" stroke="#0000ff" points="768.4624,-329.8861 768.953,-329.9826 "/>
</g>
<!-- u_54&#45;&gt;u_55 -->
<g id="edge31" class="edge">
<title>u_54:o_0&#45;&gt;u_55:i_0</title>
<path fill="none" stroke="#000000" d="M769.5,-305.5C769.5,-305.5 874.7743,-262.889 892.8683,-255.5652"/>
<polygon fill="#000000" stroke="#000000" points="895.1248,-253.5731 895.8752,-255.4269 894.0213,-256.1774 893.2709,-254.3235 895.1248,-253.5731"/>
<polyline fill="none" stroke="#000000" points="893.6461,-255.2504 893.1826,-255.438 "/>
</g>
<!-- u_55&#45;&gt;u_56 -->
<g id="edge33" class="edge">
<title>u_55:o_0&#45;&gt;u_56:i_0</title>
<path fill="none" stroke="#000000" d="M906.5,-230.5C906.5,-230.5 998.4061,-187.889 1014.2025,-180.5652"/>
<polygon fill="#000000" stroke="#000000" points="1016.0794,-178.5928 1016.9206,-180.4072 1015.1062,-181.2485 1014.2649,-179.4341 1016.0794,-178.5928"/>
<polyline fill="none" stroke="#000000" points="1014.6855,-180.3413 1014.2319,-180.5516 "/>
</g>
<!-- u_57 -->
<g id="node29" class="node">
<title>u_57</title>
<polygon fill="none" stroke="#000000" points="998.5,-85.5 998.5,-104.5 1041.5,-104.5 1041.5,-85.5 998.5,-85.5"/>
<text text-anchor="start" x="1001.5" y="-91.9" font-family="Courier,monospace" font-size="12.00" fill="#000000">CombN</text>
<polygon fill="none" stroke="#000000" points="1043.5,-85.5 1043.5,-104.5 1049.5,-104.5 1049.5,-85.5 1043.5,-85.5"/>
<polygon fill="none" stroke="#000000" points="1051.5,-85.5 1051.5,-104.5 1079.5,-104.5 1079.5,-85.5 1051.5,-85.5"/>
<text text-anchor="start" x="1054.5" y="-91.9" font-family="Courier,monospace" font-size="12.00" fill="#000000">0.2</text>
<polygon fill="none" stroke="#000000" points="1081.5,-85.5 1081.5,-104.5 1115.5,-104.5 1115.5,-85.5 1081.5,-85.5"/>
<text text-anchor="start" x="1084.5" y="-91.9" font-family="Courier,monospace" font-size="12.00" fill="#000000">0.17</text>
<polygon fill="none" stroke="#000000" points="1117.5,-85.5 1117.5,-104.5 1144.5,-104.5 1144.5,-85.5 1117.5,-85.5"/>
<text text-anchor="start" x="1120.5" y="-91.9" font-family="Courier,monospace" font-size="12.00" fill="#000000">1.5</text>
<polygon fill="none" stroke="#000000" points="1117.5,-77.5 1117.5,-83.5 1144.5,-83.5 1144.5,-77.5 1117.5,-77.5"/>
</g>
<!-- u_56&#45;&gt;u_57 -->
<g id="edge35" class="edge">
<title>u_56:o_0&#45;&gt;u_57:i_0</title>
<path fill="none" stroke="#000000" d="M1063.5,-155.5C1063.5,-155.5 1050.7158,-117.1473 1047.3199,-106.9598"/>
<polygon fill="#000000" stroke="#000000" points="1045.5513,-104.8163 1047.4487,-104.1837 1048.0812,-106.0811 1046.1838,-106.7136 1045.5513,-104.8163"/>
<polyline fill="none" stroke="#000000" points="1047.1325,-106.3974 1047.2906,-106.8717 "/>
</g>
<!-- u_57&#45;&gt;u_58 -->
<g id="edge37" class="edge">
<title>u_57:o_0&#45;&gt;u_58:i_2</title>
<path fill="none" stroke="#000000" d="M1131.5,-77.5C1131.5,-77.5 1059.2266,-36.0249 1045.6753,-28.2483"/>
<polygon fill="#000000" stroke="#000000" points="1043.0022,-27.8673 1043.9978,-26.1327 1045.7324,-27.1282 1044.7369,-28.8628 1043.0022,-27.8673"/>
<polyline fill="none" stroke="#000000" points="1045.2347,-27.9955 1045.6683,-28.2444 "/>
</g>
</g>
</svg>
